<svg xmlns="http://www.w3.org/2000/svg" width="156.759" height="161.816" viewBox="0 0 156.759 161.816">
  <defs>
    <style>
      .cls-1 {
        fill: #a8a8a8;
      }
    </style>
  </defs>
  <path id="Icon_awesome-info-circle" data-name="Icon awesome-info-circle" class="cls-1" d="M78.942.563C35.657.563.562,36.8.562,81.471c0,44.694,35.095,80.908,78.379,80.908s78.38-36.214,78.38-80.908C157.322,36.8,122.227.563,78.942.563Zm0,35.887a13.709,13.709,0,1,1-13.274,13.7A13.493,13.493,0,0,1,78.942,36.449Zm17.7,82.865a3.855,3.855,0,0,1-3.793,3.915H65.036a3.855,3.855,0,0,1-3.793-3.915v-7.83a3.855,3.855,0,0,1,3.793-3.915h3.793V86.69H65.036a3.855,3.855,0,0,1-3.793-3.915v-7.83a3.855,3.855,0,0,1,3.793-3.915H85.263a3.855,3.855,0,0,1,3.793,3.915V107.57h3.793a3.855,3.855,0,0,1,3.793,3.915Z" transform="translate(-0.563 -0.563)"/>
</svg>
