<svg id="choco-balls" xmlns="http://www.w3.org/2000/svg" width="239.418" height="322.584" viewBox="0 0 239.418 322.584">
  <defs>
    <style>
      .cls-1 {
        fill: #fff;
      }
    </style>
  </defs>
  <path id="Path_1" data-name="Path 1" class="cls-1" d="M56.7,332a56.7,56.7,0,1,0,56.7,56.7A56.769,56.769,0,0,0,56.7,332Zm0,100.807a44.1,44.1,0,1,1,44.1-44.1A44.154,44.154,0,0,1,56.7,432.807Zm0,0" transform="translate(0 -122.824)"/>
  <path id="Path_2" data-name="Path 2" class="cls-1" d="M46.543,374.943A36.73,36.73,0,0,0,32,404.122a6.3,6.3,0,1,0,12.6,0,24.062,24.062,0,0,1,9.527-19.115,6.3,6.3,0,0,0-7.585-10.063Zm0,0" transform="translate(-11.838 -138.241)"/>
  <path id="Path_3" data-name="Path 3" class="cls-1" d="M270.4,238a50.4,50.4,0,1,0,13.044,99.09,6.3,6.3,0,1,0-3.261-12.17,37.812,37.812,0,1,1,26.73-26.73,6.3,6.3,0,0,0,12.173,3.261A50.4,50.4,0,0,0,270.4,238Zm0,0" transform="translate(-81.39 -88.049)"/>
  <path id="Path_4" data-name="Path 4" class="cls-1" d="M257.934,285.121a6.3,6.3,0,1,0,10.913,6.3,17.686,17.686,0,0,1,15.276-8.821,6.3,6.3,0,1,0,0-12.6A30.324,30.324,0,0,0,257.934,285.121Zm0,0" transform="translate(-95.111 -99.887)"/>
  <path id="Path_5" data-name="Path 5" class="cls-1" d="M91.994,118a44.1,44.1,0,1,0,44.1,44.1A44.152,44.152,0,0,0,91.994,118Zm0,75.606a31.5,31.5,0,1,1,31.5-31.5A31.538,31.538,0,0,1,91.994,193.606Zm0,0" transform="translate(-17.717 -43.654)"/>
  <path id="Path_6" data-name="Path 6" class="cls-1" d="M118.837,153.207a23.945,23.945,0,0,0-28.9,3.8,6.3,6.3,0,1,0,8.909,8.912,11.339,11.339,0,0,1,13.691-1.8,6.3,6.3,0,0,0,6.3-10.915Zm0,0" transform="translate(-32.589 -55.493)"/>
  <path id="Path_7" data-name="Path 7" class="cls-1" d="M264.354,75.606a37.847,37.847,0,0,0,37.8-37.8,6.3,6.3,0,0,0-12.6,0,25.2,25.2,0,1,1-25.2-25.2,6.3,6.3,0,1,0,0-12.6,37.8,37.8,0,0,0,0,75.606Zm0,0" transform="translate(-83.813)"/>
  <path id="Path_8" data-name="Path 8" class="cls-1" d="M317.566,29.762a6.3,6.3,0,0,0,10.068-7.58c-.1-.13-.2-.263-.3-.394a6.3,6.3,0,0,0-9.955,7.728Zm0,0" transform="translate(-116.926 -7.159)"/>
  <path id="Path_9" data-name="Path 9" class="cls-1" d="M86.146,364l-.352,0a6.3,6.3,0,0,0,.086,12.6h.091l.175,0a6.3,6.3,0,0,0,0-12.6Zm0,0" transform="translate(-29.441 -134.662)"/>
  <path id="Path_10" data-name="Path 10" class="cls-1" d="M352.941,355.875a6.3,6.3,0,0,0-8.9.524l-.118.133a6.3,6.3,0,0,0,9.446,8.341l.091-.1A6.3,6.3,0,0,0,352.941,355.875Zm0,0" transform="translate(-126.653 -131.068)"/>
</svg>
