<svg xmlns="http://www.w3.org/2000/svg" width="1298.914" height="1298.914" viewBox="0 0 1298.914 1298.914">
  <defs>
    <style>
      .cls-1 {
        fill: #fff;
      }
    </style>
  </defs>
  <path id="Icon_awesome-whatsapp" data-name="Icon awesome-whatsapp" class="cls-1" d="M1104.367,191C982.883,69.225,821.1,2.25,649.167,2.25,294.285,2.25,5.509,291.026,5.509,645.908A644.351,644.351,0,0,0,91.33,967.737L0,1301.164l341.255-89.59a641.7,641.7,0,0,0,307.622,78.283h.29c354.592,0,649.747-288.776,649.747-643.658,0-171.932-73.064-333.427-194.547-455.2Zm-455.2,990.422a534.037,534.037,0,0,1-272.54-74.514l-19.426-11.6-202.375,53.058,53.928-197.447L196,930.625a533.217,533.217,0,0,1-81.762-284.717c0-294.865,240.067-534.932,535.222-534.932,142.939,0,277.179,55.668,378.077,156.855S1190.478,503.26,1190.188,646.2C1190.188,941.353,944.032,1181.42,649.167,1181.42ZM942.582,780.728c-15.947-8.118-95.1-46.97-109.886-52.188-14.787-5.509-25.514-8.118-36.242,8.118s-41.461,52.188-51.029,63.206c-9.278,10.728-18.846,12.177-34.792,4.059-94.519-47.26-156.565-84.371-218.9-191.358-16.526-28.414,16.526-26.384,47.26-87.851,5.219-10.728,2.609-20.006-1.45-28.124S501.3,409.32,487.962,377.137c-13.047-31.313-26.384-26.964-36.242-27.544-9.278-.58-20.006-.58-30.733-.58s-28.124,4.059-42.911,20.006c-14.787,16.236-56.248,55.088-56.248,134.24s57.7,155.7,65.526,166.423c8.118,10.728,113.365,173.092,274.859,242.966,102.058,44.07,142.069,47.84,193.1,40.3,31.023-4.639,95.1-38.851,108.436-76.543s13.337-69.875,9.278-76.543C969.256,792.616,958.529,788.557,942.582,780.728Z" transform="translate(0 -2.25)"/>
</svg>
