<svg id="color-palette" xmlns="http://www.w3.org/2000/svg" width="318.129" height="303.495" viewBox="0 0 318.129 303.495">
  <defs>
    <style>
      .cls-1 {
        fill: #7e7e7e;
      }
    </style>
  </defs>
  <path id="Path_11" data-name="Path 11" class="cls-1" d="M87.891,194.85a34.419,34.419,0,1,0,34.418,34.418A34.457,34.457,0,0,0,87.891,194.85Zm0,50.125A15.706,15.706,0,1,1,103.6,229.268,15.724,15.724,0,0,1,87.891,244.975Z" transform="translate(-20.117 -80.623)"/>
  <path id="Path_12" data-name="Path 12" class="cls-1" d="M185.6,325.171a34.418,34.418,0,1,0,34.419,34.418A34.457,34.457,0,0,0,185.6,325.171Zm0,50.124a15.706,15.706,0,1,1,15.706-15.706A15.724,15.724,0,0,1,185.6,375.295Z" transform="translate(-56.877 -129.652)"/>
  <path id="Path_13" data-name="Path 13" class="cls-1" d="M309.508,206.951c-.062-.061-.124-.121-.187-.181l-32.4-30.572A54.513,54.513,0,0,0,295.8,115.756c-35.125-105.97-170.1-139.59-250.52-60.381C-14.951,114.7-14.389,210.351,42.76,269.254,94.1,322.17,175,329.6,234.7,290.518c27.96-18.3,15.106-61.849-18.352-61.849-24.989,0-29.188-34.939-5.583-40.921l57.078,60.491c.06.063.12.125.182.187a29.329,29.329,0,1,0,41.48-41.475Zm-120.89,29.383a40.155,40.155,0,0,0,27.734,11.047c14.943,0,20.577,19.32,8.1,27.481C172.2,309.07,101.226,302.644,56.19,256.225a132.842,132.842,0,0,1,2.43-187.4c70.545-69.391,188.537-40.36,219.421,52.82a35.718,35.718,0,0,1-15.022,41.431l-51.97-49.041a46.365,46.365,0,0,0-12.629-42.45c-14.33-14.331-59.475-21.474-79.04-23.6A9.361,9.361,0,0,0,109.067,58.3c2.143,19.641,9.244,64.684,23.6,79.04a46.373,46.373,0,0,0,42.454,12.627l21.891,23.2c-23.311,12.655-28.044,44.544-8.393,63.167ZM145.9,124.109c-7.051-7.051-13.35-33.866-16.676-55.968,22.1,3.325,48.918,9.626,55.968,16.676A27.783,27.783,0,0,1,145.9,124.109ZM296.3,235.221a10.617,10.617,0,0,1-14.944.067l-88.161-93.432a47.377,47.377,0,0,0,9.745-9.745l93.433,88.167A10.607,10.607,0,0,1,296.3,235.221Z" transform="translate(0 -11.73)"/>
</svg>
