<svg xmlns="http://www.w3.org/2000/svg" width="164.509" height="164.51" viewBox="0 0 164.509 164.51">
  <defs>
    <style>
      .cls-1 {
        fill: #ff6b8c;
      }
    </style>
  </defs>
  <path id="Icon_material-shopping-cart" data-name="Icon material-shopping-cart" class="cls-1" d="M50.853,134.608A16.451,16.451,0,1,0,67.3,151.059,16.429,16.429,0,0,0,50.853,134.608ZM1.5,3V19.451H17.951L47.563,81.882l-11.1,20.152a15.9,15.9,0,0,0-2.056,7.9,16.5,16.5,0,0,0,16.451,16.451h98.706V109.931H54.307a2.036,2.036,0,0,1-2.056-2.056l.247-.987L59.9,93.48h61.28a16.373,16.373,0,0,0,14.395-8.472l29.447-53.383a8.036,8.036,0,0,0,.987-3.948,8.25,8.25,0,0,0-8.225-8.225H36.129L28.4,3ZM133.107,134.608a16.451,16.451,0,1,0,16.451,16.451A16.429,16.429,0,0,0,133.107,134.608Z" transform="translate(-1.5 -3)"/>
</svg>
