<svg xmlns="http://www.w3.org/2000/svg" width="164.51" height="164.51" viewBox="0 0 164.51 164.51">
  <defs>
    <style>
      .cls-1 {
        fill: #a8a8a8;
      }
    </style>
  </defs>
  <path id="Icon_awesome-dice-five" data-name="Icon awesome-dice-five" class="cls-1" d="M141.008,2.25H23.5A23.5,23.5,0,0,0,0,25.751V143.258a23.5,23.5,0,0,0,23.5,23.5H141.008a23.5,23.5,0,0,0,23.5-23.5V25.751A23.5,23.5,0,0,0,141.008,2.25ZM47,131.508a11.751,11.751,0,1,1,11.751-11.751A11.752,11.752,0,0,1,47,131.508ZM47,61A11.751,11.751,0,1,1,58.753,49.253,11.752,11.752,0,0,1,47,61ZM82.255,96.256A11.751,11.751,0,1,1,94.005,84.5,11.752,11.752,0,0,1,82.255,96.256Zm35.252,35.252a11.751,11.751,0,1,1,11.751-11.751A11.752,11.752,0,0,1,117.507,131.508Zm0-70.5a11.751,11.751,0,1,1,11.751-11.751A11.752,11.752,0,0,1,117.507,61Z" transform="translate(0 -2.25)"/>
</svg>
