<svg xmlns="http://www.w3.org/2000/svg" width="1491.431" height="1491.801" viewBox="0 0 1491.431 1491.801">
  <defs>
    <style>
      .cls-1 {
        fill: #c4c4c4;
      }
    </style>
  </defs>
  <path id="Icon_ionic-ios-search" data-name="Icon ionic-ios-search" class="cls-1" d="M1478.435,1388.322l-414.8-418.683c81.173-101.758,130.11-230.7,130.11-370.911,0-328.188-266.046-594.235-594.623-594.235S4.5,270.928,4.5,599.116,270.546,1193.35,599.123,1193.35a592.538,592.538,0,0,0,374.8-132.829L1386,1476.486a63.833,63.833,0,0,0,90.106,2.33A64.254,64.254,0,0,0,1478.435,1388.322ZM599.123,1065.571c-124.673,0-241.966-48.549-330.13-136.713S132.28,723.4,132.28,599.116c0-124.673,48.549-241.966,136.713-329.742,88.164-88.164,205.458-136.713,330.13-136.713s241.966,48.549,330.13,136.713,136.713,205.458,136.713,329.742c0,124.673-48.549,241.966-136.713,329.742C841.089,1017.022,723.8,1065.571,599.123,1065.571Z" transform="translate(-4.5 -4.493)"/>
</svg>
