<svg id="custom" xmlns="http://www.w3.org/2000/svg" width="330.653" height="303.495" viewBox="0 0 330.653 303.495">
  <defs>
    <style>
      .cls-1 {
        fill: #7e7e7e;
      }
    </style>
  </defs>
  <g id="Group_1" data-name="Group 1" transform="translate(0 0)">
    <path id="Path_14" data-name="Path 14" class="cls-1" d="M321.951,166.5c24.506-43.872-5.513-96.548-55.462-101.524l-18.232-1.817c-13.335-1.33-25.2-7.115-35.044-18.165-34.3-38.5-98.272-29.1-119.358,17.285A50.765,50.765,0,0,1,67.746,87.69L42.06,98.889c-40.981,17.867-54.8,67.41-28.963,102.8C30.41,225.4,34.139,229.152,37.075,239.942L45.168,269.7a69.582,69.582,0,0,0,37,44.137,73.31,73.31,0,0,0,60.672,1.517l3.455-1.467a54.535,54.535,0,0,1,32.892-2.981l52.987,11.8c51.658,11.5,97.113-33.346,85.595-82.551l-6.706-28.642a47.745,47.745,0,0,1,4.872-34.236Zm-16.912-9.446-6.015,10.769a67.081,67.081,0,0,0-6.821,48.1l6.706,28.642c8.414,35.94-25.358,67.5-62.524,59.227l-52.987-11.8a74.052,74.052,0,0,0-44.673,4.06l-3.455,1.467a53.943,53.943,0,0,1-44.645-1.112,50.216,50.216,0,0,1-26.767-31.8L55.766,234.86c-4.025-14.8-9.734-20.908-27.025-44.59-18.55-25.408-8.509-60.732,21.06-73.622l25.686-11.2a70.1,70.1,0,0,0,36-35.151c15.279-33.612,62.252-40.484,87.26-12.416,13.2,14.82,29.583,22.762,47.587,24.555l18.232,1.817C300.966,87.881,322.578,125.663,305.04,157.057Z" transform="translate(-0.001 -21.026)"/>
  </g>
</svg>
