<svg id="taste" xmlns="http://www.w3.org/2000/svg" width="328.607" height="221.445" viewBox="0 0 328.607 221.445">
  <defs>
    <style>
      .cls-1 {
        fill: #fff;
      }
    </style>
  </defs>
  <path id="Path_22" data-name="Path 22" class="cls-1" d="M328.607,72.871a544.054,544.054,0,0,0-44.731-37.28C251.675,11.643,227.592,0,210.25,0a76.23,76.23,0,0,0-47,16.426A74.438,74.438,0,0,0,116.752,0C99.38,0,75.528,11.658,43.831,35.638A525.552,525.552,0,0,0,.13,72.745L0,76.7c-.118,3.816,1.1,38.143,77.649,82.638.7,20.944,9.3,36.844,25.632,47.306,13.949,8.935,33.532,13.771,59.866,14.787l.371.013.371-.013c26.455-1.018,46.243-5.836,60.5-14.727,17.1-10.663,26-26.891,26.512-48.279,74.811-43.9,77.566-77.506,77.629-81.267ZM55.447,50.989c36.5-27.615,54.078-31.737,61.305-31.737a55.019,55.019,0,0,1,39.424,16.737l6.719,6.975,6.932-6.762c11.209-10.931,25.565-16.95,40.424-16.95,7.233,0,24.9,4.117,62,31.684,4.6,3.42,9.025,6.852,13.147,10.141-21.017-3.675-49.693-8.414-81.289-12.859-17.005-2.389-28.315,9.848-40.324,9.527h-.529c-12.069.336-23.326-11.921-40.364-9.527-31.426,4.42-59.6,9.133-80.221,12.8,4-3.252,8.3-6.644,12.773-10.031ZM24,88.775a346.673,346.673,0,0,1,53.644,14.772v33.322C44.591,116.255,30.228,99.325,24,88.775Zm139.524,113.4c-22.619-.905-38.932-4.748-49.853-11.746-11.989-7.679-17.324-19.159-16.782-36.127l.005-49.159c6.922-.429,17.369-.84,28.894-.474a77.174,77.174,0,0,1,28.856,7.113v32.589H173.9V111.106a76.806,76.806,0,0,1,27.322-6.431c11.821-.376,23.058.068,30.428.511V154l.005.306c.411,12.947-2.149,27.187-18.615,36.781-10.244,5.972-25.87,10.146-49.512,11.091ZM200.6,85.436c-16.015.509-29.684,5.749-37.1,9.236a96.427,96.427,0,0,0-37.1-9.236,327.08,327.08,0,0,0-39.09,1.138c-9.943-3.648-19.139-6.609-27.455-9.015,18.475-3.166,41.078-6.809,65.72-10.276,9.575-1.344,20.754,10.063,37.962,9.712,17.146.306,28.357-11.046,37.889-9.712,24.547,3.452,47.308,7.083,66.031,10.244-8.384,2.389-17.6,5.33-27.49,8.948A362.381,362.381,0,0,0,200.6,85.436ZM250.9,135.921V103.006a341.159,341.159,0,0,1,53-14.208C297.311,99.29,282.8,115.844,250.9,135.921Zm0,0" transform="translate(0 0)"/>
  <path id="Path_23" data-name="Path 23" class="cls-1" d="M240.949,254.945H260.2V274.2H240.949Zm0,0" transform="translate(-86.305 -91.319)"/>
</svg>
