<svg id="strawberry" xmlns="http://www.w3.org/2000/svg" width="304.994" height="377.355" viewBox="0 0 304.994 377.355">
  <defs>
    <style>
      .cls-1 {
        fill: #7e7e7e;
      }
    </style>
  </defs>
  <path id="Path_15" data-name="Path 15" class="cls-1" d="M307.563,91.834a22.255,22.255,0,0,0,6.052-15.184c0-13.185-13.782-20.075-18.311-22.34-29.74-14.869-69.929-18.062-86.341-18.747C198.591.513,173.443,0,172.106,0a11.792,11.792,0,0,0,0,23.585,2.942,2.942,0,0,1-.488-.015c.164.015,4.046.433,8.107,5.259a30.721,30.721,0,0,1,4.446,7.33c-19.491,1.48-51.521,5.762-76.3,18.152C103.342,56.575,89.56,63.466,89.56,76.65a22.254,22.254,0,0,0,6.052,15.184C67.9,112.45,49.09,142.039,49.09,176.384c0,63.535,66.464,200.971,152.5,200.971,85.971,0,152.5-137.406,152.5-200.971C354.084,142.017,335.242,112.43,307.563,91.834ZM118.418,75.405c22.616-11.308,53.926-14.841,70.949-15.943.274,3.426.428,7.175.428,11.292a11.792,11.792,0,1,0,23.585,0c0-4.007-.136-7.777-.381-11.343,16.83,1.043,48.78,4.505,71.758,15.994a39.754,39.754,0,0,1,3.754,2.1c-3.621,2.514-11.456,5.038-16.169,5.038a11.812,11.812,0,0,0-10.56,17.04c2.364,4.79,4.151,11.237,4.04,14.211-9.306,3.242-22.548-6.47-26.6-10.29a11.8,11.8,0,0,0-19.1,4.141c-3.685,9.215-12.519,22.068-18.532,22.068-6.176,0-14.883-13.062-18.532-22.068a11.8,11.8,0,0,0-19.1-4.141c-3.289,3.148-16.992,13.637-26.6,10.29-.111-2.975,1.674-9.419,4.027-14.185a11.8,11.8,0,0,0-10.548-17.066c-4.815,0-12.619-2.573-16.169-5.038a39.74,39.74,0,0,1,3.754-2.1ZM201.587,353.77c-67.674,0-128.912-121.42-128.912-177.386,0-26.432,15.043-51.118,41.636-68.929-2.755,17.744,6.811,24.693,11.249,26.912,14.73,7.365,30.685,2.454,42.489-4.6,19.7,31.433,47.373,31.438,67.077,0,11.8,7.058,27.761,11.969,42.489,4.6,4.438-2.219,14-9.169,11.249-26.913,26.594,17.811,41.636,42.5,41.636,68.929,0,28.431-16.188,73.718-39.367,110.133-15.987,25.118-48.879,67.254-89.546,67.254Z" transform="translate(-49.09 0)"/>
  <path id="Path_16" data-name="Path 16" class="cls-1" d="M251.793,240A11.793,11.793,0,0,0,240,251.792v5.9a11.792,11.792,0,0,0,23.585,0v-5.9A11.792,11.792,0,0,0,251.793,240Z" transform="translate(-99.295 -63.115)"/>
  <path id="Path_17" data-name="Path 17" class="cls-1" d="M251.793,384A11.793,11.793,0,0,0,240,395.792v5.9a11.792,11.792,0,0,0,23.585,0v-5.9A11.793,11.793,0,0,0,251.793,384Z" transform="translate(-99.295 -100.983)"/>
  <path id="Path_18" data-name="Path 18" class="cls-1" d="M363.792,240A11.793,11.793,0,0,0,352,251.792v5.9a11.792,11.792,0,1,0,23.584,0v-5.9A11.792,11.792,0,0,0,363.792,240Z" transform="translate(-128.749 -63.115)"/>
  <path id="Path_19" data-name="Path 19" class="cls-1" d="M139.792,240A11.793,11.793,0,0,0,128,251.792v5.9a11.792,11.792,0,0,0,23.585,0v-5.9A11.793,11.793,0,0,0,139.792,240Z" transform="translate(-69.842 -63.115)"/>
  <path id="Path_20" data-name="Path 20" class="cls-1" d="M195.792,320A11.793,11.793,0,0,0,184,331.792v5.9a11.792,11.792,0,0,0,23.585,0v-5.9A11.793,11.793,0,0,0,195.792,320Z" transform="translate(-84.568 -84.153)"/>
  <path id="Path_21" data-name="Path 21" class="cls-1" d="M307.792,320A11.793,11.793,0,0,0,296,331.792v5.9a11.792,11.792,0,0,0,23.585,0v-5.9A11.792,11.792,0,0,0,307.792,320Z" transform="translate(-114.022 -84.153)"/>
</svg>
