<svg xmlns="http://www.w3.org/2000/svg" width="363" height="363" viewBox="0 0 363 363">
  <defs>
    <style>
      .cls-1 {
        fill: #fff;
      }

      .cls-2 {
        fill: #ff6b8c;
      }
    </style>
  </defs>
  <g id="Group_3" data-name="Group 3" transform="translate(-779 -75)">
    <circle id="Ellipse_1" data-name="Ellipse 1" class="cls-1" cx="181.5" cy="181.5" r="181.5" transform="translate(779 75)"/>
    <g id="cake" transform="translate(858.238 154.238)">
      <path id="Path_24" data-name="Path 24" class="cls-2" d="M435.14,335.329a17.968,17.968,0,0,1-3.14,1.459v51.719a46.083,46.083,0,0,0,16.824-8.536c10.085-8.29,15.2-20.45,15.2-36.144V306.085a91.439,91.439,0,0,1-28.882,29.244Z" transform="translate(-259.081 -183.567)"/>
      <path id="Path_25" data-name="Path 25" class="cls-2" d="M353.4,374.434a23.867,23.867,0,0,1-2.4,10.46L371.415,392V373.4L353.4,367.131Z" transform="translate(-210.504 -220.178)"/>
      <path id="Path_26" data-name="Path 26" class="cls-2" d="M94.865,275.84,0,242.8v18.6l94.865,33.038Z" transform="translate(0 -145.615)"/>
      <path id="Path_27" data-name="Path 27" class="cls-2" d="M118.882,370.806A24.053,24.053,0,0,1,96.149,354.52L0,321.035v15.747a6,6,0,0,0,4.029,5.67L160.91,397.087V377.074l-29.026-10.109A23.869,23.869,0,0,1,118.882,370.806Z" transform="translate(0 -192.533)"/>
      <path id="Path_28" data-name="Path 28" class="cls-2" d="M172,50.035a26.018,26.018,0,1,0,31.567-25.416A31.707,31.707,0,0,0,186.382,1.481l-1.69-.845a6,6,0,0,0-5.37,10.74l1.69.845a19.782,19.782,0,0,1,10.336,12.667A26.062,26.062,0,0,0,172,50.035Z" transform="translate(-103.153 -0.001)"/>
      <path id="Path_29" data-name="Path 29" class="cls-2" d="M204.941,107.419c0-1.658-.4-40.834-34.978-61.211a6,6,0,0,0-5.031-.494c-5.046,1.766-19.076,6.653-36.945,12.872A38.023,38.023,0,1,1,57.3,83.186C32.747,91.734,11.858,99.008,4.021,101.752a6,6,0,0,0,.008,11.337L106.873,148.9v32.564a12.008,12.008,0,1,0,24.016,0v-24.2l34.05,11.858a6,6,0,0,0,5.023-.5C171.391,167.788,204.941,147.556,204.941,107.419Zm-64.044,4a6,6,0,1,1,6-6A6,6,0,0,1,140.9,111.421ZM152.9,139.441a6,6,0,1,1,6-6A6,6,0,0,1,152.9,139.441ZM164.913,87.4a6,6,0,1,1,6-6A6,6,0,0,1,164.913,87.4Zm8.005,28.019a6,6,0,1,1,6-6A6,6,0,0,1,172.919,115.424Z" transform="translate(0 -27.213)"/>
    </g>
  </g>
</svg>
